<svg width="66" height="65" viewBox="0 0 66 65" fill="none" xmlns="http://www.w3.org/2000/svg">
<path d="M11.6875 0H54.3125C60.775 0 66 5.225 66 11.6875V52.6625C66 59.125 60.775 64.35 54.3125 64.35H11.6875C5.225 64.35 0 59.125 0 52.6625V11.6875C0 5.225 5.225 0 11.6875 0Z" fill="#333333"/>
<path d="M26.5099 38.5H16.2799L14.1899 44.99C14.1349 45.2375 13.9149 45.4025 13.6674 45.375H8.49742C8.19492 45.375 8.11242 45.21 8.19492 44.88L17.0499 19.4975C17.1324 19.2225 17.2149 18.975 17.3249 18.645C17.4349 18.0675 17.4899 17.4625 17.4899 16.8575C17.4624 16.72 17.5724 16.5825 17.7099 16.555H17.7924H24.8324C25.0249 16.555 25.1624 16.6375 25.1899 16.775L35.2274 44.825C35.3099 45.1275 35.2274 45.265 34.9524 45.265H29.2049C29.0124 45.2925 28.8199 45.155 28.7649 44.9625L26.5099 38.3625V38.5ZM17.8749 33.0275H24.8599C24.6949 32.45 24.4749 31.7625 24.2274 31.0475C23.9799 30.305 23.7324 29.5075 23.4849 28.6825C23.2099 27.83 22.9624 27.005 22.6874 26.1525C22.4124 25.3 22.1649 24.5025 21.9449 23.705C21.7249 22.935 21.5324 22.22 21.3399 21.56H21.2849C21.0374 22.7425 20.7349 23.925 20.3499 25.1075C19.9374 26.4275 19.5249 27.8025 19.0849 29.1775C18.7274 30.58 18.2874 31.8725 17.8749 33.0275Z" fill="#F6F0E2"/>
<path d="M51.4249 36.025H42.7074C42.8174 36.8775 43.0924 37.73 43.5599 38.4725C44.0549 39.215 44.7424 39.7925 45.5674 40.1225C46.6674 40.59 47.8774 40.8375 49.0874 40.81C50.0499 40.7825 51.0124 40.7 51.9474 40.5075C52.7999 40.3975 53.6249 40.1775 54.3949 39.875C54.5324 39.765 54.6149 39.82 54.6149 40.095V44.3025C54.6149 44.4125 54.5874 44.5225 54.5599 44.6325C54.5049 44.715 54.4499 44.77 54.3674 44.825C53.4874 45.21 52.5799 45.485 51.6174 45.65C50.3249 45.8975 49.0324 46.0075 47.7124 45.98C45.6224 45.98 43.8624 45.65 42.4324 45.0175C41.0849 44.44 39.9024 43.5325 38.9674 42.405C38.0874 41.3325 37.4549 40.1225 37.0699 38.8025C36.6849 37.51 36.4924 36.1625 36.4924 34.7875C36.4924 33.3025 36.7124 31.845 37.1799 30.415C37.6199 29.04 38.3074 27.775 39.2424 26.6475C40.1499 25.5475 41.2774 24.6675 42.5699 24.035C43.8624 23.4025 45.4024 23.1825 47.1624 23.1825C48.6199 23.155 50.0774 23.43 51.4249 24.035C52.5524 24.53 53.5424 25.2725 54.3124 26.235C55.0274 27.17 55.6049 28.215 55.9624 29.37C56.3199 30.47 56.4849 31.5975 56.4849 32.725C56.4849 33.385 56.4574 33.9625 56.4299 34.485C56.3749 35.0075 56.3474 35.3925 56.3199 35.64C56.2924 35.8325 56.1274 35.9975 55.9349 35.9975C55.7699 35.9975 55.4674 36.025 55.0274 36.0525C54.5874 36.1075 54.0649 36.135 53.4324 36.135C52.7999 36.135 52.1399 36.025 51.4249 36.025ZM42.7074 32.01H48.5099C49.2249 32.01 49.7474 32.01 50.0774 31.9825C50.2974 31.955 50.5174 31.9 50.7099 31.7625V31.4875C50.7099 31.13 50.6549 30.8 50.5449 30.47C50.0499 28.93 48.5924 27.885 46.9699 27.94C45.4574 27.8575 44.0274 28.655 43.3124 30.03C42.9824 30.6625 42.7899 31.3225 42.7074 32.01Z" fill="#F6F0E2"/>
</svg>
