<svg width="66" height="94" viewBox="0 0 66 94" fill="none" xmlns="http://www.w3.org/2000/svg">
<path d="M66 18.308L59.9872 85.6663L32.9596 93.1592L6.0064 85.6768L0 18.308H66Z" fill="#333333"/>
<path d="M54.8396 81.3771L59.9779 23.8163H33V87.4319L54.8396 81.3771Z" fill="#444444"/>
<path d="M13.7695 48.8025L14.5101 57.0649H33V48.8025H13.7695Z" fill="#FCF6E7"/>
<path d="M32.9999 32.079H32.9714H12.2815L13.0326 40.3416H32.9999V32.079Z" fill="#FCF6E7"/>
<path d="M33.0001 78.8576V70.2611L32.9639 70.2708L23.7619 67.786L23.1737 61.1963H18.7022H14.8794L16.037 74.1696L32.9621 78.8681L33.0001 78.8576Z" fill="#FCF6E7"/>
<path d="M15.5327 0H25.54V4.18488H19.7176V8.36977H25.54V12.5547H15.5327V0Z" fill="#333333"/>
<path d="M27.5415 0H37.5488V3.63903H31.7264V4.36684H37.5488V12.7366H27.5415V8.91562H33.364V8.18782H27.5415V0Z" fill="#333333"/>
<path d="M39.5503 0H49.5576V3.63903H43.7352V4.36684H49.5576V12.7366H39.5503V8.91562H45.3727V8.18782H39.5503V0Z" fill="#333333"/>
<path d="M43.1458 57.0649L42.1867 67.7808L32.9714 70.2681V78.8642L49.91 74.1696L50.0343 72.7737L51.9759 51.0212L52.1775 48.8025L53.6691 32.079H32.9714V40.3416H44.6141L43.8623 48.8025H32.9714V57.0649H43.1458Z" fill="#F6F0E2"/>
</svg>
