<svg width="232" height="69" viewBox="0 0 232 69" fill="none" xmlns="http://www.w3.org/2000/svg">
<path d="M86.0257 42.6627L95.5 52.1365L104.925 42.7118C105.133 42.4902 105.384 42.3129 105.663 42.1906C105.941 42.0683 106.241 42.0035 106.545 42C107.196 42 107.82 42.2586 108.281 42.7189C108.741 43.1792 109 43.8034 109 44.4544C109.005 44.7553 108.949 45.0542 108.836 45.3327C108.722 45.6113 108.552 45.8636 108.337 46.0743L98.789 55.499L108.337 65.0465C108.741 65.4423 108.979 65.9782 109 66.5437C109 67.1946 108.741 67.8189 108.281 68.2792C107.82 68.7395 107.196 68.9981 106.545 68.9981C106.232 69.011 105.92 68.9588 105.629 68.8447C105.337 68.7307 105.072 68.5572 104.852 68.3354L95.5 58.8615L86.0503 68.3108C85.8429 68.525 85.5951 68.696 85.3213 68.814C85.0475 68.9319 84.753 68.9945 84.4549 68.9981C83.8039 68.9981 83.1796 68.7395 82.7193 68.2792C82.259 67.8189 82.0004 67.1946 82.0004 66.5437C81.9947 66.2428 82.0505 65.9439 82.1645 65.6653C82.2784 65.3868 82.4481 65.1344 82.6631 64.9238L92.211 55.499L82.6631 45.9515C82.2586 45.5558 82.0214 45.0199 82.0004 44.4544C82.0004 43.8034 82.259 43.1792 82.7193 42.7189C83.1796 42.2586 83.8039 42 84.4549 42C85.0439 42.0074 85.6085 42.2454 86.0257 42.6627Z" fill="#F6F0E2"/>
<path d="M4.02573 42.6627L13.5 52.1365L22.9252 42.7118C23.1334 42.4902 23.3842 42.3129 23.6625 42.1906C23.9409 42.0683 24.2411 42.0035 24.5451 42C25.1961 42 25.8204 42.2586 26.2807 42.7189C26.741 43.1792 26.9996 43.8034 26.9996 44.4544C27.0053 44.7553 26.9495 45.0542 26.8355 45.3327C26.7216 45.6113 26.5519 45.8636 26.3369 46.0743L16.789 55.499L26.3369 65.0465C26.7414 65.4423 26.9786 65.9782 26.9996 66.5437C26.9996 67.1946 26.741 67.8189 26.2807 68.2792C25.8204 68.7395 25.1961 68.9981 24.5451 68.9981C24.2323 69.011 23.9202 68.9588 23.6287 68.8447C23.3371 68.7307 23.0725 68.5572 22.8515 68.3354L13.5 58.8615L4.05028 68.3108C3.84289 68.525 3.59513 68.696 3.32131 68.814C3.04748 68.9319 2.753 68.9945 2.45487 68.9981C1.80391 68.9981 1.1796 68.7395 0.719298 68.2792C0.258995 67.8189 0.000399359 67.1946 0.000399359 66.5437C-0.00532323 66.2428 0.0505084 65.9439 0.164468 65.6653C0.278428 65.3868 0.448113 65.1344 0.663107 64.9238L10.211 55.499L0.663107 45.9515C0.258573 45.5558 0.0213596 45.0199 0.000399359 44.4544C0.000399359 43.8034 0.258995 43.1792 0.719298 42.7189C1.1796 42.2586 1.80391 42 2.45487 42C3.04395 42.0074 3.60847 42.2454 4.02573 42.6627Z" fill="#F6F0E2"/>
<path d="M168.026 42.6627L177.5 52.1365L186.925 42.7118C187.133 42.4902 187.384 42.3129 187.663 42.1906C187.941 42.0683 188.241 42.0035 188.545 42C189.196 42 189.82 42.2586 190.281 42.7189C190.741 43.1792 191 43.8034 191 44.4544C191.005 44.7553 190.949 45.0542 190.836 45.3327C190.722 45.6113 190.552 45.8636 190.337 46.0743L180.789 55.499L190.337 65.0465C190.741 65.4423 190.979 65.9782 191 66.5437C191 67.1946 190.741 67.8189 190.281 68.2792C189.82 68.7395 189.196 68.9981 188.545 68.9981C188.232 69.011 187.92 68.9588 187.629 68.8447C187.337 68.7307 187.072 68.5572 186.852 68.3354L177.5 58.8615L168.05 68.3108C167.843 68.525 167.595 68.696 167.321 68.814C167.047 68.9319 166.753 68.9945 166.455 68.9981C165.804 68.9981 165.18 68.7395 164.719 68.2792C164.259 67.8189 164 67.1946 164 66.5437C163.995 66.2428 164.051 65.9439 164.164 65.6653C164.278 65.3868 164.448 65.1344 164.663 64.9238L174.211 55.499L164.663 45.9515C164.259 45.5558 164.021 45.0199 164 44.4544C164 43.8034 164.259 43.1792 164.719 42.7189C165.18 42.2586 165.804 42 166.455 42C167.044 42.0074 167.608 42.2454 168.026 42.6627Z" fill="#F6F0E2"/>
<path d="M86.0257 0.66268L95.5 10.1365L104.925 0.711767C105.133 0.49018 105.384 0.312919 105.663 0.190612C105.941 0.0683047 106.241 0.00347132 106.545 0C107.196 0 107.82 0.258584 108.281 0.718868C108.741 1.17915 109 1.80343 109 2.45437C109.005 2.75528 108.949 3.05419 108.836 3.33274C108.722 3.6113 108.552 3.86363 108.337 4.07425L98.789 13.499L108.337 23.0465C108.741 23.4423 108.979 23.9782 109 24.5437C109 25.1946 108.741 25.8189 108.281 26.2792C107.82 26.7395 107.196 26.9981 106.545 26.9981C106.232 27.011 105.92 26.9588 105.629 26.8447C105.337 26.7307 105.072 26.5572 104.852 26.3354L95.5 16.8615L86.0503 26.3108C85.8429 26.525 85.5951 26.696 85.3213 26.814C85.0475 26.9319 84.753 26.9945 84.4549 26.9981C83.8039 26.9981 83.1796 26.7395 82.7193 26.2792C82.259 25.8189 82.0004 25.1946 82.0004 24.5437C81.9947 24.2428 82.0505 23.9439 82.1645 23.6653C82.2784 23.3868 82.4481 23.1344 82.6631 22.9238L92.211 13.499L82.6631 3.95153C82.2586 3.55579 82.0214 3.01989 82.0004 2.45437C82.0004 1.80343 82.259 1.17915 82.7193 0.718868C83.1796 0.258584 83.8039 0 84.4549 0C85.0439 0.00736311 85.6085 0.245437 86.0257 0.66268Z" fill="#F6F0E2"/>
<path d="M4.02573 0.66268L13.5 10.1365L22.9252 0.711767C23.1334 0.49018 23.3842 0.312919 23.6625 0.190612C23.9409 0.0683047 24.2411 0.00347132 24.5451 0C25.1961 0 25.8204 0.258584 26.2807 0.718868C26.741 1.17915 26.9996 1.80343 26.9996 2.45437C27.0053 2.75528 26.9495 3.05419 26.8355 3.33274C26.7216 3.6113 26.5519 3.86363 26.3369 4.07425L16.789 13.499L26.3369 23.0465C26.7414 23.4423 26.9786 23.9782 26.9996 24.5437C26.9996 25.1946 26.741 25.8189 26.2807 26.2792C25.8204 26.7395 25.1961 26.9981 24.5451 26.9981C24.2323 27.011 23.9202 26.9588 23.6287 26.8447C23.3371 26.7307 23.0725 26.5572 22.8515 26.3354L13.5 16.8615L4.05028 26.3108C3.84289 26.525 3.59513 26.696 3.32131 26.814C3.04748 26.9319 2.753 26.9945 2.45487 26.9981C1.80391 26.9981 1.1796 26.7395 0.719298 26.2792C0.258995 25.8189 0.000399359 25.1946 0.000399359 24.5437C-0.00532323 24.2428 0.0505084 23.9439 0.164468 23.6653C0.278428 23.3868 0.448113 23.1344 0.663107 22.9238L10.211 13.499L0.663107 3.95153C0.258573 3.55579 0.0213596 3.01989 0.000399359 2.45437C0.000399359 1.80343 0.258995 1.17915 0.719298 0.718868C1.1796 0.258584 1.80391 0 2.45487 0C3.04395 0.00736311 3.60847 0.245437 4.02573 0.66268Z" fill="#F6F0E2"/>
<path d="M168.026 0.66268L177.5 10.1365L186.925 0.711767C187.133 0.49018 187.384 0.312919 187.663 0.190612C187.941 0.0683047 188.241 0.00347132 188.545 0C189.196 0 189.82 0.258584 190.281 0.718868C190.741 1.17915 191 1.80343 191 2.45437C191.005 2.75528 190.949 3.05419 190.836 3.33274C190.722 3.6113 190.552 3.86363 190.337 4.07425L180.789 13.499L190.337 23.0465C190.741 23.4423 190.979 23.9782 191 24.5437C191 25.1946 190.741 25.8189 190.281 26.2792C189.82 26.7395 189.196 26.9981 188.545 26.9981C188.232 27.011 187.92 26.9588 187.629 26.8447C187.337 26.7307 187.072 26.5572 186.852 26.3354L177.5 16.8615L168.05 26.3108C167.843 26.525 167.595 26.696 167.321 26.814C167.047 26.9319 166.753 26.9945 166.455 26.9981C165.804 26.9981 165.18 26.7395 164.719 26.2792C164.259 25.8189 164 25.1946 164 24.5437C163.995 24.2428 164.051 23.9439 164.164 23.6653C164.278 23.3868 164.448 23.1344 164.663 22.9238L174.211 13.499L164.663 3.95153C164.259 3.55579 164.021 3.01989 164 2.45437C164 1.80343 164.259 1.17915 164.719 0.718868C165.18 0.258584 165.804 0 166.455 0C167.044 0.00736311 167.608 0.245437 168.026 0.66268Z" fill="#F6F0E2"/>
<path d="M127.026 42.6627L136.5 52.1365L145.925 42.7118C146.133 42.4902 146.384 42.3129 146.663 42.1906C146.941 42.0683 147.241 42.0035 147.545 42C148.196 42 148.82 42.2586 149.281 42.7189C149.741 43.1792 150 43.8034 150 44.4544C150.005 44.7553 149.949 45.0542 149.836 45.3327C149.722 45.6113 149.552 45.8636 149.337 46.0743L139.789 55.499L149.337 65.0465C149.741 65.4423 149.979 65.9782 150 66.5437C150 67.1946 149.741 67.8189 149.281 68.2792C148.82 68.7395 148.196 68.9981 147.545 68.9981C147.232 69.011 146.92 68.9588 146.629 68.8447C146.337 68.7307 146.072 68.5572 145.852 68.3354L136.5 58.8615L127.05 68.3108C126.843 68.525 126.595 68.696 126.321 68.814C126.047 68.9319 125.753 68.9945 125.455 68.9981C124.804 68.9981 124.18 68.7395 123.719 68.2792C123.259 67.8189 123 67.1946 123 66.5437C122.995 66.2428 123.051 65.9439 123.164 65.6653C123.278 65.3868 123.448 65.1344 123.663 64.9238L133.211 55.499L123.663 45.9515C123.259 45.5558 123.021 45.0199 123 44.4544C123 43.8034 123.259 43.1792 123.719 42.7189C124.18 42.2586 124.804 42 125.455 42C126.044 42.0074 126.608 42.2454 127.026 42.6627Z" fill="#F6F0E2"/>
<path d="M45.0257 42.6627L54.5 52.1365L63.9252 42.7118C64.1334 42.4902 64.3842 42.3129 64.6625 42.1906C64.9409 42.0683 65.2411 42.0035 65.5451 42C66.1961 42 66.8204 42.2586 67.2807 42.7189C67.741 43.1792 67.9996 43.8034 67.9996 44.4544C68.0053 44.7553 67.9495 45.0542 67.8355 45.3327C67.7216 45.6113 67.5519 45.8636 67.3369 46.0743L57.789 55.499L67.3369 65.0465C67.7414 65.4423 67.9786 65.9782 67.9996 66.5437C67.9996 67.1946 67.741 67.8189 67.2807 68.2792C66.8204 68.7395 66.1961 68.9981 65.5451 68.9981C65.2323 69.011 64.9202 68.9588 64.6287 68.8447C64.3371 68.7307 64.0725 68.5572 63.8515 68.3354L54.5 58.8615L45.0503 68.3108C44.8429 68.525 44.5951 68.696 44.3213 68.814C44.0475 68.9319 43.753 68.9945 43.4549 68.9981C42.8039 68.9981 42.1796 68.7395 41.7193 68.2792C41.259 67.8189 41.0004 67.1946 41.0004 66.5437C40.9947 66.2428 41.0505 65.9439 41.1645 65.6653C41.2784 65.3868 41.4481 65.1344 41.6631 64.9238L51.211 55.499L41.6631 45.9515C41.2586 45.5558 41.0214 45.0199 41.0004 44.4544C41.0004 43.8034 41.259 43.1792 41.7193 42.7189C42.1796 42.2586 42.8039 42 43.4549 42C44.0439 42.0074 44.6085 42.2454 45.0257 42.6627Z" fill="#F6F0E2"/>
<path d="M209.026 42.6627L218.5 52.1365L227.925 42.7118C228.133 42.4902 228.384 42.3129 228.663 42.1906C228.941 42.0683 229.241 42.0035 229.545 42C230.196 42 230.82 42.2586 231.281 42.7189C231.741 43.1792 232 43.8034 232 44.4544C232.005 44.7553 231.949 45.0542 231.836 45.3327C231.722 45.6113 231.552 45.8636 231.337 46.0743L221.789 55.499L231.337 65.0465C231.741 65.4423 231.979 65.9782 232 66.5437C232 67.1946 231.741 67.8189 231.281 68.2792C230.82 68.7395 230.196 68.9981 229.545 68.9981C229.232 69.011 228.92 68.9588 228.629 68.8447C228.337 68.7307 228.072 68.5572 227.852 68.3354L218.5 58.8615L209.05 68.3108C208.843 68.525 208.595 68.696 208.321 68.814C208.047 68.9319 207.753 68.9945 207.455 68.9981C206.804 68.9981 206.18 68.7395 205.719 68.2792C205.259 67.8189 205 67.1946 205 66.5437C204.995 66.2428 205.051 65.9439 205.164 65.6653C205.278 65.3868 205.448 65.1344 205.663 64.9238L215.211 55.499L205.663 45.9515C205.259 45.5558 205.021 45.0199 205 44.4544C205 43.8034 205.259 43.1792 205.719 42.7189C206.18 42.2586 206.804 42 207.455 42C208.044 42.0074 208.608 42.2454 209.026 42.6627Z" fill="#F6F0E2"/>
<path d="M127.026 0.66268L136.5 10.1365L145.925 0.711767C146.133 0.49018 146.384 0.312919 146.663 0.190612C146.941 0.0683047 147.241 0.00347132 147.545 0C148.196 0 148.82 0.258584 149.281 0.718868C149.741 1.17915 150 1.80343 150 2.45437C150.005 2.75528 149.949 3.05419 149.836 3.33274C149.722 3.6113 149.552 3.86363 149.337 4.07425L139.789 13.499L149.337 23.0465C149.741 23.4423 149.979 23.9782 150 24.5437C150 25.1946 149.741 25.8189 149.281 26.2792C148.82 26.7395 148.196 26.9981 147.545 26.9981C147.232 27.011 146.92 26.9588 146.629 26.8447C146.337 26.7307 146.072 26.5572 145.852 26.3354L136.5 16.8615L127.05 26.3108C126.843 26.525 126.595 26.696 126.321 26.814C126.047 26.9319 125.753 26.9945 125.455 26.9981C124.804 26.9981 124.18 26.7395 123.719 26.2792C123.259 25.8189 123 25.1946 123 24.5437C122.995 24.2428 123.051 23.9439 123.164 23.6653C123.278 23.3868 123.448 23.1344 123.663 22.9238L133.211 13.499L123.663 3.95153C123.259 3.55579 123.021 3.01989 123 2.45437C123 1.80343 123.259 1.17915 123.719 0.718868C124.18 0.258584 124.804 0 125.455 0C126.044 0.00736311 126.608 0.245437 127.026 0.66268Z" fill="#F6F0E2"/>
<path d="M45.0257 0.66268L54.5 10.1365L63.9252 0.711767C64.1334 0.49018 64.3842 0.312919 64.6625 0.190612C64.9409 0.0683047 65.2411 0.00347132 65.5451 0C66.1961 0 66.8204 0.258584 67.2807 0.718868C67.741 1.17915 67.9996 1.80343 67.9996 2.45437C68.0053 2.75528 67.9495 3.05419 67.8355 3.33274C67.7216 3.6113 67.5519 3.86363 67.3369 4.07425L57.789 13.499L67.3369 23.0465C67.7414 23.4423 67.9786 23.9782 67.9996 24.5437C67.9996 25.1946 67.741 25.8189 67.2807 26.2792C66.8204 26.7395 66.1961 26.9981 65.5451 26.9981C65.2323 27.011 64.9202 26.9588 64.6287 26.8447C64.3371 26.7307 64.0725 26.5572 63.8515 26.3354L54.5 16.8615L45.0503 26.3108C44.8429 26.525 44.5951 26.696 44.3213 26.814C44.0475 26.9319 43.753 26.9945 43.4549 26.9981C42.8039 26.9981 42.1796 26.7395 41.7193 26.2792C41.259 25.8189 41.0004 25.1946 41.0004 24.5437C40.9947 24.2428 41.0505 23.9439 41.1645 23.6653C41.2784 23.3868 41.4481 23.1344 41.6631 22.9238L51.211 13.499L41.6631 3.95153C41.2586 3.55579 41.0214 3.01989 41.0004 2.45437C41.0004 1.80343 41.259 1.17915 41.7193 0.718868C42.1796 0.258584 42.8039 0 43.4549 0C44.0439 0.00736311 44.6085 0.245437 45.0257 0.66268Z" fill="#F6F0E2"/>
<path d="M209.026 0.66268L218.5 10.1365L227.925 0.711767C228.133 0.49018 228.384 0.312919 228.663 0.190612C228.941 0.0683047 229.241 0.00347132 229.545 0C230.196 0 230.82 0.258584 231.281 0.718868C231.741 1.17915 232 1.80343 232 2.45437C232.005 2.75528 231.949 3.05419 231.836 3.33274C231.722 3.6113 231.552 3.86363 231.337 4.07425L221.789 13.499L231.337 23.0465C231.741 23.4423 231.979 23.9782 232 24.5437C232 25.1946 231.741 25.8189 231.281 26.2792C230.82 26.7395 230.196 26.9981 229.545 26.9981C229.232 27.011 228.92 26.9588 228.629 26.8447C228.337 26.7307 228.072 26.5572 227.852 26.3354L218.5 16.8615L209.05 26.3108C208.843 26.525 208.595 26.696 208.321 26.814C208.047 26.9319 207.753 26.9945 207.455 26.9981C206.804 26.9981 206.18 26.7395 205.719 26.2792C205.259 25.8189 205 25.1946 205 24.5437C204.995 24.2428 205.051 23.9439 205.164 23.6653C205.278 23.3868 205.448 23.1344 205.663 22.9238L215.211 13.499L205.663 3.95153C205.259 3.55579 205.021 3.01989 205 2.45437C205 1.80343 205.259 1.17915 205.719 0.718868C206.18 0.258584 206.804 0 207.455 0C208.044 0.00736311 208.608 0.245437 209.026 0.66268Z" fill="#F6F0E2"/>
</svg>
