<svg width="1538" height="107" viewBox="0 0 1538 107" fill="none" xmlns="http://www.w3.org/2000/svg">
<g clip-path="url(#clip0_47_5)">
<path d="M679.94 8.61008C713.62 3.72008 713.42 21.6701 736.87 31.5701C752.68 38.2401 769.71 39.5101 786.4 35.8701C819 28.7501 833.06 -7.65992 871.66 14.1801C924.45 44.0501 874.89 127.57 821.26 90.0401C794.82 71.5401 776.12 61.5301 742.17 73.6701C719 81.9501 713.45 100.55 685.17 98.8201C631.63 95.5301 630.88 15.7301 679.94 8.62008V8.61008ZM708.07 35.6101C685.42 11.0801 646.84 46.6701 670.38 71.1801C693.68 95.4401 730.53 59.9501 708.07 35.6101ZM842.57 28.3901C817.07 32.6801 815.65 74.0401 843.98 78.6301C882.96 84.9401 884.03 21.4201 842.57 28.3901Z" fill="#848484"/>
<path d="M979.26 89.7401C948.88 67.2001 961.24 14.3301 998.17 8.58015C1030.33 3.57015 1033.04 21.8201 1056.56 31.5601C1073.33 38.5001 1088.07 39.6001 1105.8 35.5801C1137.5 28.3801 1151.11 -7.10985 1189.03 13.6701C1243.09 43.3001 1193.93 127.38 1140.38 90.6101C1118.35 75.4801 1108.66 66.2401 1078.64 69.2401C1040.44 73.0601 1019 119.22 979.27 89.7401H979.26ZM1026.34 35.6101C1003.73 11.4701 965.21 46.2301 988.65 71.1801C1011.74 95.7601 1049.03 59.8401 1026.34 35.6101ZM1160.83 28.3901C1135.12 32.7101 1134.28 74.1001 1162.24 78.6301C1201.36 84.9601 1202.28 21.4201 1160.83 28.3901Z" fill="#848484"/>
<path d="M1294.76 86.82C1258.11 54.79 1295.18 -7.80998 1343 11.04C1354.38 15.52 1361.78 26.04 1373.83 31.13C1394.95 40.06 1415.78 40.31 1437 31.55C1460.31 21.93 1461.19 3.85002 1493.95 8.61002C1547.4 16.37 1540.6 105.74 1478.91 98.62C1459.86 96.42 1454.26 83.38 1438.95 76.34C1425.87 70.32 1411.28 67.8 1396.89 69.24C1357.67 73.15 1335.39 122.33 1294.76 86.82ZM1308.8 72.81C1332.69 94.81 1367.67 57.52 1343.53 34.55C1319.42 11.61 1283.06 49.11 1308.8 72.81ZM1479.09 28.39C1449.38 33.46 1455.16 84.23 1489.74 78.63C1521.35 73.51 1515.61 22.16 1479.09 28.39Z" fill="#848484"/>
<path d="M43.4198 8.60998C75.6298 3.89998 77.4899 21.92 100.37 31.55C117.59 38.8 136.45 39.87 154.39 34.7C182.89 26.5 195.38 -4.87002 231.44 12.22C276.84 33.74 257.72 104 205.74 98.74C186.86 96.83 180.1 82.75 164.97 75.85C147.44 67.85 125.75 66.93 107.47 72.65C78.8999 81.58 66.5498 113.96 29.1798 92.82C-6.97016 72.37 3.43983 14.43 43.4198 8.58998V8.60998ZM47.6199 28.39C16.1299 33.68 22.3499 82.9 55.6399 78.86C88.2499 74.9 83.5299 22.36 47.6199 28.39ZM229.96 71.38C253.8 46.87 215.98 11.53 193.12 35.25C169.95 59.29 206.43 95.58 229.96 71.38Z" fill="#848484"/>
<path d="M562.38 85.54C547.32 100.58 523.31 103.59 505.31 91.97C487.73 80.62 483.35 71.69 458.74 69.23C428.71 66.23 419.04 75.46 397 90.6C374.23 106.23 342.98 99.56 330.36 74.56C308.51 31.27 358.23 -11 397.29 16.12C415.52 28.77 420.69 36.69 446.12 38.01C475.39 39.52 483.12 29.17 504.43 15.57C551.94 -14.75 599.92 48.04 562.38 85.54ZM364.45 28.37C334.5 34.56 341.17 84.13 375.12 78.63C407.99 73.3 400.1 21 364.45 28.37ZM524.31 28.39C493.82 33.59 500.47 84.43 534.95 78.62C565.91 73.41 560.68 22.19 524.31 28.39Z" fill="#848484"/>
<path d="M640.66 32.3C636.25 46.95 636.09 60.1101 640.66 74.7201C619.53 67.3401 599.6 67.1201 578.44 74.7201C582.14 60.5101 582.72 46.41 578.44 32.3C599.84 39.58 619.2 39.32 640.66 32.3Z" fill="#848484"/>
<path d="M958.92 32.3C955 46.61 955.01 60.4401 958.92 74.7201C938.15 66.9301 917.5 67.6401 896.7 74.7201C901.29 59.9501 901.29 47.07 896.7 32.3C918.16 39.32 937.52 39.58 958.92 32.3Z" fill="#848484"/>
<path d="M1277.19 32.3C1273.27 46.61 1273.28 60.4401 1277.19 74.7201C1256.25 66.9301 1235.96 67.4801 1214.97 74.7201C1219.61 59.9001 1219.99 47.12 1214.97 32.3C1236.43 39.32 1255.79 39.58 1277.2 32.3H1277.19Z" fill="#848484"/>
<path d="M322.4 32.3C317.58 47.05 317.28 60.0101 322.4 74.7201C301.74 67.1701 280.87 67.1501 260.18 74.7201C264.09 60.4401 264.1 46.61 260.18 32.3C281.66 39.53 300.95 39.52 322.41 32.3H322.4Z" fill="#848484"/>
<path d="M834.94 67.1699C814.1 46.1199 851.61 20.1599 864.76 43.7199C875.84 63.5799 849.49 81.8599 834.94 67.1699Z" fill="#848484"/>
<path d="M689.74 34.18C712.45 34.44 714.52 69.69 692.32 71.94C662.83 74.93 664.05 33.89 689.74 34.18Z" fill="#848484"/>
<path d="M1002.4 35.4601C1034.53 29.5101 1033.78 76.5001 1003.57 71.8001C984.01 68.7501 983.89 38.8901 1002.4 35.4601Z" fill="#848484"/>
<path d="M1153.2 67.1701C1133.38 47.1701 1167.47 19.7601 1182.43 42.8901C1195.17 62.5901 1168.36 82.4701 1153.2 67.1701Z" fill="#848484"/>
<path d="M1498.79 39.84C1516.17 57.06 1489.75 84.65 1471.46 67.17C1454.55 51.01 1480.17 21.4 1498.79 39.84Z" fill="#848484"/>
<path d="M1319.21 35.42C1350.91 28.16 1353.89 73.53 1324.54 72C1301.75 70.81 1302.55 39.24 1319.21 35.42Z" fill="#848484"/>
<path d="M65.9101 39.84C80.9801 54.91 61.9101 81.89 42.4101 69.71C18.1801 54.57 46.7801 20.71 65.9101 39.84Z" fill="#848484"/>
<path d="M211.64 34.18C236.09 34.25 237.53 74.95 208.52 71.93C185.92 69.58 188.25 34.11 211.64 34.18Z" fill="#848484"/>
<path d="M384.17 67.1699C375.46 75.6199 356.32 72.6599 353.07 60.3299C348.89 44.4699 357.79 33.4999 374.13 35.0299C389.39 36.4599 394.91 56.7399 384.17 67.1699Z" fill="#848484"/>
<path d="M529.85 34.1901C555.47 33.4001 555.62 78.0501 524.29 71.5701C505.63 67.7101 506.17 34.9201 529.85 34.1901Z" fill="#848484"/>
</g>
<defs>
<clipPath id="clip0_47_5">
<rect width="105.56" height="1537.12" fill="white" transform="matrix(0 1 -1 0 1537.34 0.780029)"/>
</clipPath>
</defs>
</svg>
