<svg width="66" height="65" viewBox="0 0 66 65" fill="none" xmlns="http://www.w3.org/2000/svg">
<rect width="66" height="64.35" rx="11" fill="#333333"/>
<path d="M27.6333 48.8C30.7446 48.8 33.2667 46.2779 33.2667 43.1666V37.5333H27.6333C24.5221 37.5333 22 40.0555 22 43.1666C22 46.2779 24.5221 48.8 27.6333 48.8Z" fill="#F6F0E2"/>
<path d="M22 31.9001C22 28.7888 24.5221 26.2667 27.6333 26.2667H33.2667V37.5334H27.6333C24.5221 37.5334 22 35.0112 22 31.9001Z" fill="#F6F0E2"/>
<path d="M22 20.6334C22 17.5221 24.5221 15 27.6333 15H33.2667V26.2667H27.6333C24.5221 26.2667 22 23.7445 22 20.6334Z" fill="#F6F0E2"/>
<path d="M33.2668 15H38.9002C42.0114 15 44.5335 17.5221 44.5335 20.6334C44.5335 23.7445 42.0114 26.2667 38.9002 26.2667H33.2668V15Z" fill="#F6F0E2"/>
<path d="M44.5335 31.9001C44.5335 35.0112 42.0114 37.5334 38.9002 37.5334C35.7889 37.5334 33.2668 35.0112 33.2668 31.9001C33.2668 28.7888 35.7889 26.2667 38.9002 26.2667C42.0114 26.2667 44.5335 28.7888 44.5335 31.9001Z" fill="#F6F0E2"/>
</svg>
