<svg width="32" height="32" viewBox="0 0 32 32" fill="none" xmlns="http://www.w3.org/2000/svg">
<path d="M10.6667 21.6134V10.3868C10.666 9.94354 10.7909 9.5092 11.0269 9.13402C11.2628 8.75884 11.6002 8.45815 12 8.26676C12.4743 8.04272 13.002 7.95642 13.523 8.01772C14.044 8.07901 14.5373 8.28542 14.9467 8.61343L21.7467 14.2268C22.0008 14.447 22.2047 14.7194 22.3444 15.0254C22.4841 15.3313 22.5564 15.6637 22.5564 16.0001C22.5564 16.3364 22.4841 16.6689 22.3444 16.9748C22.2047 17.2808 22.0008 17.5531 21.7467 17.7734L14.9467 23.3868C14.5373 23.7148 14.044 23.9212 13.523 23.9825C13.002 24.0438 12.4743 23.9575 12 23.7334C11.6002 23.542 11.2628 23.2413 11.0269 22.8662C10.7909 22.491 10.666 22.0566 10.6667 21.6134Z" fill="#333333"/>
</svg>
