<svg width="66" height="94" viewBox="0 0 66 94" fill="none" xmlns="http://www.w3.org/2000/svg">
<path d="M6.14893 0H10.333V4.14774H14.1897V0H18.3738V12.5524H14.1897V8.36825H10.3694V12.5524H6.14893M23.9042 4.18412H20.2112V0H31.7994V4.18412H28.0883V12.5524H23.9042M33.6368 0H38.021L40.7134 4.42062L43.4058 0H47.7901V12.5524H43.6059V6.33076L40.677 10.8423L37.7482 6.33076V12.5524H33.6368M49.8639 0H54.048V8.40463H59.9786V12.5524H49.8639" fill="#333333"/>
<path d="M6.00331 85.6835L0 18.301H66L59.9967 85.6472L32.9454 93.1422" fill="#333333"/>
<path d="M33 87.4118V23.8313H59.9785L54.8302 81.3175" fill="#444444"/>
<path d="M12.2612 32.0722H32.9999V40.3313H21.3208L22.0848 48.7905H32.9999V57.0314H14.517M14.8809 61.1791H23.1763L23.7585 67.7828L32.9999 70.2569V78.8798L16.0451 74.1499" fill="#FCF6E7"/>
<path d="M53.6659 32.0722H32.9636V40.3313H52.9019M52.156 48.7905H32.9636V57.0496H43.1511L42.1869 67.7828L32.9636 70.2569V78.8434L49.882 74.1499" fill="#F6F0E2"/>
</svg>
