<svg width="66" height="65" viewBox="0 0 66 65" fill="none" xmlns="http://www.w3.org/2000/svg">
<path d="M11.6875 0H54.3125C60.775 0 66 5.225 66 11.6875V52.6625C66 59.125 60.775 64.35 54.3125 64.35H11.6875C5.225 64.35 0 59.125 0 52.6625V11.6875C0 5.225 5.225 0 11.6875 0Z" fill="#333333"/>
<path d="M31.8998 38.5H21.6698L19.5798 44.9625C19.5248 45.21 19.3048 45.375 19.0573 45.3475H13.8873C13.5848 45.3475 13.5023 45.1825 13.5848 44.8525L22.4398 19.36C22.5223 19.085 22.6048 18.7825 22.7148 18.4525C22.8248 17.875 22.8798 17.27 22.8798 16.665C22.8523 16.5275 22.9623 16.39 23.0998 16.3625H30.2223C30.4423 16.3625 30.5523 16.445 30.5798 16.5825L40.6173 44.9075C40.6998 45.21 40.6173 45.3475 40.3423 45.3475H34.5948C34.4023 45.375 34.2098 45.2375 34.1548 45.045L31.8998 38.5ZM23.2648 32.9175H30.2498C30.0848 32.34 29.8648 31.6525 29.6173 30.9375C29.3698 30.195 29.1223 29.3975 28.8748 28.5725C28.5998 27.72 28.3523 26.895 28.0773 26.0425C27.8023 25.19 27.5548 24.3925 27.3348 23.595C27.1148 22.825 26.9223 22.11 26.7298 21.45H26.6748C26.4273 22.6325 26.1248 23.815 25.7398 24.9975C25.3273 26.3175 24.9148 27.6925 24.4748 29.0675C24.0898 30.47 23.6773 31.7625 23.2648 32.9175ZM46.7498 21.175C45.8423 21.2025 44.9623 20.845 44.3023 20.2125C43.6698 19.525 43.3398 18.6175 43.3673 17.6825C43.3398 16.7475 43.6973 15.8675 44.3573 15.235C45.0173 14.6025 45.8973 14.2725 46.8048 14.2725C47.8773 14.2725 48.7023 14.6025 49.3073 15.235C49.9123 15.895 50.2423 16.775 50.2148 17.6825C50.2423 18.6175 49.9123 19.525 49.2523 20.2125C48.6198 20.8725 47.6848 21.23 46.7498 21.175ZM43.6698 45.045V23.87C43.6698 23.595 43.7798 23.485 44.0273 23.485H49.4723C49.7198 23.485 49.8298 23.6225 49.8298 23.87V45.045C49.8298 45.3475 49.7198 45.485 49.4723 45.485H44.0823C43.8073 45.485 43.6698 45.32 43.6698 45.045Z" fill="#F6F0E2"/>
</svg>
