<svg width="64" height="64" viewBox="0 0 64 64" fill="none" xmlns="http://www.w3.org/2000/svg">
<path d="M11.3333 0H52.6667C58.9333 0 64 5.1438 64 11.5059V51.8441C64 58.2062 58.9333 63.35 52.6667 63.35H11.3333C5.06667 63.35 0 58.2062 0 51.8441V11.5059C0 5.1438 5.06667 0 11.3333 0Z" fill="#333333"/>
<path d="M23.3986 16.5685V44.4533C23.3986 44.7511 23.2645 44.8865 23.023 44.8865H17.7636C17.5221 44.8865 17.4148 44.7511 17.4148 44.4533V16.5685C17.4148 16.3248 17.549 16.2165 17.7905 16.2165H23.023C23.184 16.1895 23.345 16.2978 23.3718 16.4873C23.3986 16.5143 23.3986 16.5414 23.3986 16.5685Z" fill="#F6F0E2"/>
<path d="M38.9082 45.2114C36.9225 45.2384 34.9369 44.8323 33.139 43.9931C31.4485 43.208 30.0532 41.9085 29.0872 40.3112C28.0944 38.6598 27.6114 36.6023 27.6114 34.1386C27.5845 32.1353 28.0944 30.159 29.0872 28.4263C30.1069 26.6666 31.5827 25.2047 33.3537 24.2301C35.232 23.1742 37.486 22.6598 40.1425 22.6598C40.2767 22.6598 40.4645 22.6598 40.706 22.6869C40.9475 22.714 41.2159 22.714 41.5379 22.7411V14.1861C41.5379 13.9966 41.6184 13.8883 41.8062 13.8883H47.2534C47.3875 13.8612 47.4949 13.9695 47.5217 14.0778V14.132V39.9051C47.5217 40.3924 47.5485 40.9339 47.5754 41.5295C47.629 42.098 47.6559 42.6395 47.6827 43.0997C47.6827 43.2892 47.6022 43.4516 47.4144 43.5329C46.019 44.1285 44.5432 44.5616 43.0405 44.8323C41.6989 45.076 40.3035 45.2114 38.9082 45.2114ZM41.5379 39.7968V27.8849C41.2964 27.8307 41.0549 27.7766 40.8134 27.7495C40.5182 27.7224 40.223 27.6954 39.9279 27.6954C38.8814 27.6954 37.8349 27.9119 36.8957 28.3992C35.9834 28.8595 35.2052 29.5363 34.6149 30.4026C34.0245 31.2689 33.7294 32.4331 33.7294 33.8408C33.7025 34.7884 33.8635 35.7359 34.1855 36.6293C34.4539 37.3603 34.8564 38.01 35.393 38.5515C35.9029 39.0388 36.52 39.4178 37.2177 39.6344C37.9422 39.878 38.6935 39.9863 39.4449 39.9863C39.8474 39.9863 40.223 39.9593 40.5719 39.9322C40.9207 39.9593 41.2427 39.9051 41.5379 39.7968Z" fill="#F6F0E2"/>
</svg>
