<svg width="66" height="64" viewBox="0 0 66 64" fill="none" xmlns="http://www.w3.org/2000/svg">
<path d="M32.8229 4.6737L55.4906 15.5902L61.0892 40.1185L45.4029 59.7887H32.8237H20.2429L4.55663 40.1185L10.1551 15.5902L32.8229 4.6737ZM32.8229 0L6.50057 12.676L0 41.1587L18.2156 64H32.8229H47.4302L65.6458 41.1587L59.1444 12.676L32.8229 0Z" fill="#333333"/>
<path d="M25.6065 21.1787C25.6065 22.8287 24.557 24.178 22.6072 24.178C20.8073 24.178 19.6079 22.8279 19.6079 21.3287C19.6079 19.6787 20.8073 18.1794 22.6072 18.1794C24.4071 18.1794 25.6065 19.5287 25.6065 21.1787Z" fill="#333333"/>
<path d="M25.6073 25.678H19.6079V45.1755H25.6073V25.678Z" fill="#333333"/>
<path d="M40.005 25.9778C36.8558 25.9778 35.0559 27.7777 34.3054 28.9771H34.1555L33.8557 26.4275H28.4568C28.4568 28.0775 28.6067 30.0274 28.6067 32.277V45.1754H34.6061V34.5267C34.6061 33.927 34.6061 33.4773 34.7561 33.0267C35.2058 31.9772 35.9554 30.6271 37.6054 30.6271C39.7052 30.6271 40.6047 32.427 40.6047 34.8266V45.1754H46.6041V34.077C46.6041 28.5273 43.7548 25.9778 40.005 25.9778Z" fill="#333333"/>
</svg>
