<svg width="66" height="64" viewBox="0 0 66 64" fill="none" xmlns="http://www.w3.org/2000/svg">
<path d="M32.8237 4.6737L55.4915 15.5902L61.09 40.1185L45.4037 59.7887H20.2446L4.55833 40.1185L10.1568 15.5902L32.8237 4.6737ZM32.8237 0L6.5014 12.676L0 41.1587L18.2156 64H47.431L65.6466 41.1587L59.1452 12.676L32.8237 0Z" fill="#333333"/>
<path d="M15.1378 26.111C15.4478 24.4964 15.7366 22.8767 16.616 21.4415C18.6222 18.1677 21.7588 16.911 25.3763 16.8226C30.3086 16.7021 35.2484 16.7047 40.1807 16.8243C43.5295 16.906 46.5103 18.0085 48.5494 20.9109C49.8625 22.779 50.351 24.9192 50.3847 27.131C50.4563 31.8721 50.49 36.6165 50.3805 41.3559C50.2929 45.1731 48.9655 48.4309 45.3918 50.3715C43.741 51.2677 41.9309 51.6576 40.0847 51.6787C35.2148 51.7343 30.3414 51.7823 25.4723 51.6711C21.8195 51.5877 18.645 50.3547 16.6151 47.0463C15.735 45.611 15.4469 43.9905 15.137 42.3768C15.1378 36.9534 15.1378 31.5327 15.1378 26.111ZM32.8084 20.1638C30.3894 20.1638 27.9688 20.1175 25.5507 20.1748C21.7723 20.2632 19.4493 22.0336 18.762 25.2865C18.6163 25.9771 18.5077 26.6905 18.5043 27.3946C18.4824 31.9757 18.4209 36.5576 18.5144 41.137C18.6079 45.6936 20.9115 48.1302 25.3064 48.292C30.2707 48.4747 35.2434 48.4587 40.2085 48.2945C43.8698 48.1732 46.0462 46.4112 46.7461 43.2468C46.8708 42.6817 46.9896 42.1005 46.9929 41.5261C47.0199 36.3041 47.3063 31.0753 46.8346 25.8626C46.5558 22.7748 44.4864 20.7576 41.4104 20.3356C38.5501 19.9432 35.6738 20.2228 32.8084 20.1638Z" fill="#333333"/>
<path d="M41.9074 34.3019C41.8922 39.2224 37.8098 43.2669 32.7958 43.3276C27.7658 43.3882 23.5941 39.2359 23.6084 34.1848C23.6228 29.2197 27.861 25.0657 32.8169 25.16C37.9016 25.2552 41.9226 29.2989 41.9074 34.3019ZM38.5148 34.2573C38.5198 31.1249 35.9425 28.5602 32.7722 28.5434C29.623 28.5265 27.0061 31.1047 27.0011 34.2286C26.996 37.361 29.5742 39.9257 32.7436 39.9425C35.8928 39.9594 38.5097 37.3812 38.5148 34.2573Z" fill="#333333"/>
<path d="M42.1559 22.7697C43.3696 22.7545 44.3955 23.7585 44.3888 24.9554C44.382 26.1025 43.3983 27.0863 42.2225 27.1191C41.013 27.1537 39.9644 26.1674 39.9425 24.9747C39.9214 23.7703 40.9094 22.7857 42.1559 22.7697Z" fill="#333333"/>
</svg>
