<svg width="66" height="64" viewBox="0 0 66 64" fill="none" xmlns="http://www.w3.org/2000/svg">
<path d="M32.8237 4.67454L55.4915 15.5902L61.09 40.1185L45.4029 59.7887H20.2437L4.55747 40.1185L10.156 15.5902L32.8237 4.67454ZM32.8237 0L6.50141 12.676L0 41.1587L18.2156 64H47.4311L65.6466 41.1587L59.1461 12.676L32.8237 0Z" fill="#333333"/>
<path d="M29.2467 33.9516C29.2467 33.9516 32.8069 33.6753 32.8069 29.3242C32.8069 24.968 29.8944 22.8489 26.2019 22.8489H14.0574V47.1725H26.2019C26.2019 47.1725 33.618 47.4151 33.618 39.9914C33.6163 39.9906 33.9398 33.9516 29.2467 33.9516ZM19.4091 27.1697H26.2019C26.2019 27.1697 27.8544 27.1697 27.8544 29.699C27.8544 32.2317 26.8833 32.5989 25.7808 32.5989H19.4091V27.1697ZM25.8583 42.8492H19.4099V36.3478H26.2028C26.2028 36.3478 28.6639 36.3141 28.6639 39.6882C28.6639 42.5325 26.8252 42.8281 25.8583 42.8492Z" fill="#333333"/>
<path d="M43.5053 29.0352C34.5277 29.0352 34.5352 38.3817 34.5352 38.3817C34.5352 38.3817 33.9221 47.6794 43.5053 47.6794C43.5053 47.6794 51.4899 48.1578 51.4899 41.2117H47.3839C47.3839 41.2117 47.5195 43.8295 43.6434 43.8295C43.6434 43.8295 39.5341 44.1158 39.5341 39.5954H51.6205C51.6213 39.5929 52.9529 29.0352 43.5053 29.0352ZM47.1574 36.3468H39.4911C39.4911 36.3468 39.9914 32.5979 43.5971 32.5979C47.2028 32.5988 47.1574 36.3468 47.1574 36.3468Z" fill="#333333"/>
<path d="M48.1116 24.2781H38.4829V27.2774H48.1116V24.2781Z" fill="#333333"/>
</svg>
