<svg width="2175" height="1099" viewBox="0 0 2175 1099" fill="none" xmlns="http://www.w3.org/2000/svg">
<mask id="path-1-inside-1_159_25" fill="white">
<path fill-rule="evenodd" clip-rule="evenodd" d="M542 140C635.379 140 721.503 170.312 790.6 221.401C802.103 232.154 814.254 242.27 826.989 251.689L827.322 252H827.411C897.141 303.435 984.362 334 1079 334C1173.64 334 1260.86 303.435 1330.59 252H1332.48C1334.26 250.156 1336.05 248.327 1337.86 246.516C1351.87 235.699 1365.13 224.022 1377.56 211.57C1447.77 157.363 1536.51 125 1633 125C1860.54 125 2045 304.981 2045 527C2045 749.019 1860.54 929 1633 929C1536.22 929 1447.23 896.44 1376.92 841.934C1303.32 774.972 1204.57 734 1096 734C982.308 734 879.372 778.933 804.826 851.592C733.499 909.306 641.902 944 542 944C314.458 944 130 764.019 130 542C130 319.981 314.458 140 542 140Z"/>
</mask>
<path fill-rule="evenodd" clip-rule="evenodd" d="M542 140C635.379 140 721.503 170.312 790.6 221.401C802.103 232.154 814.254 242.27 826.989 251.689L827.322 252H827.411C897.141 303.435 984.362 334 1079 334C1173.64 334 1260.86 303.435 1330.59 252H1332.48C1334.26 250.156 1336.05 248.327 1337.86 246.516C1351.87 235.699 1365.13 224.022 1377.56 211.57C1447.77 157.363 1536.51 125 1633 125C1860.54 125 2045 304.981 2045 527C2045 749.019 1860.54 929 1633 929C1536.22 929 1447.23 896.44 1376.92 841.934C1303.32 774.972 1204.57 734 1096 734C982.308 734 879.372 778.933 804.826 851.592C733.499 909.306 641.902 944 542 944C314.458 944 130 764.019 130 542C130 319.981 314.458 140 542 140Z" fill="#333333"/>
<path d="M790.6 221.401L814.501 195.833L813.029 194.456L811.408 193.258L790.6 221.401ZM826.989 251.689L850.906 226.135L849.428 224.752L847.801 223.549L826.989 251.689ZM827.322 252L803.405 277.554L813.498 287H827.322V252ZM827.411 252L848.187 223.833L838.922 217H827.411V252ZM1330.59 252V217H1319.08L1309.81 223.833L1330.59 252ZM1332.48 252V287H1347.38L1357.71 276.259L1332.48 252ZM1337.86 246.516L1316.47 218.813L1314.68 220.192L1313.09 221.788L1337.86 246.516ZM1377.56 211.57L1356.17 183.866L1354.38 185.245L1352.79 186.843L1377.56 211.57ZM1376.92 841.934L1353.36 867.822L1354.38 868.75L1355.47 869.596L1376.92 841.934ZM804.826 851.592L826.842 878.801L828.099 877.784L829.256 876.656L804.826 851.592ZM811.408 193.258C736.438 137.826 643.056 105 542 105V175C627.703 175 706.568 202.797 769.792 249.544L811.408 193.258ZM847.801 223.549C836.141 214.925 825.022 205.668 814.501 195.833L766.699 246.969C779.184 258.641 792.367 269.615 806.178 279.829L847.801 223.549ZM851.238 226.446L850.906 226.135L803.073 277.243L803.405 277.554L851.238 226.446ZM827.411 217H827.322V287H827.411V217ZM1079 299C991.987 299 912.019 270.917 848.187 223.833L806.635 280.167C882.264 335.952 976.738 369 1079 369V299ZM1309.81 223.833C1245.98 270.917 1166.01 299 1079 299V369C1181.26 369 1275.74 335.952 1351.37 280.167L1309.81 223.833ZM1332.48 217H1330.59V287H1332.48V217ZM1313.09 221.788C1311.12 223.754 1309.18 225.738 1307.25 227.741L1357.71 276.259C1359.33 274.573 1360.97 272.901 1362.63 271.244L1313.09 221.788ZM1352.79 186.843C1341.42 198.228 1329.29 208.911 1316.47 218.813L1359.25 274.219C1374.44 262.486 1388.83 249.817 1402.33 236.297L1352.79 186.843ZM1633 90C1528.58 90 1432.36 125.049 1356.17 183.866L1398.95 239.274C1463.19 189.676 1544.45 160 1633 160V90ZM2080 527C2080 284.846 1879.06 90 1633 90V160C1842.03 160 2010 325.117 2010 527H2080ZM1633 964C1879.06 964 2080 769.154 2080 527H2010C2010 728.883 1842.03 894 1633 894V964ZM1355.47 869.596C1431.77 928.737 1528.26 964 1633 964V894C1544.18 894 1462.7 864.143 1398.36 814.272L1355.47 869.596ZM1096 769C1195.62 769 1286.04 806.566 1353.36 867.822L1400.47 816.046C1320.61 743.378 1213.51 699 1096 699V769ZM829.256 876.656C897.441 810.196 991.678 769 1096 769V699C972.938 699 861.302 747.67 780.397 826.529L829.256 876.656ZM542 979C650.122 979 749.447 941.425 826.842 878.801L782.811 824.384C717.552 877.187 633.682 909 542 909V979ZM95 542C95 784.154 295.944 979 542 979V909C332.973 909 165 743.883 165 542H95ZM542 105C295.944 105 95 299.846 95 542H165C165 340.117 332.973 175 542 175V105Z" fill="#F6F0E2" mask="url(#path-1-inside-1_159_25)"/>
<path d="M633.139 359C637.805 359 641.805 360.667 645.139 364C648.805 367.333 650.639 371.5 650.639 376.5V584C650.639 619.667 636.972 650.5 609.639 676.5C582.639 702.5 550.472 715.5 513.139 715.5C475.472 715.5 443.139 702.667 416.139 677C389.139 651.333 375.639 620.333 375.639 584C375.639 579.333 377.305 575.333 380.639 572C384.305 568.667 388.472 567 393.139 567C398.139 567 402.305 568.667 405.639 572C408.972 575.333 410.639 579.333 410.639 584C410.639 601.667 415.139 618 424.139 633C433.472 647.667 445.972 659.333 461.639 668C477.639 676.333 494.805 680.5 513.139 680.5C540.805 680.5 564.805 671 585.139 652C605.472 633 615.639 610.333 615.639 584V393.5H450.639C445.972 393.5 441.805 391.833 438.139 388.5C434.805 385.167 433.139 381.167 433.139 376.5C433.139 371.5 434.805 367.333 438.139 364C441.805 360.667 445.972 359 450.639 359H633.139Z" fill="#F6F0E2"/>
<circle cx="516" cy="524" r="21" fill="#F6F0E2"/>
<circle cx="1645" cy="524" r="21" fill="#F6F0E2"/>
<circle cx="1645" cy="524" r="162.5" stroke="#F6F0E2" stroke-width="35"/>
</svg>
