<svg width="66" height="65" viewBox="0 0 66 65" fill="none" xmlns="http://www.w3.org/2000/svg">
<path d="M11.6875 0H54.3125C60.775 0 66 5.225 66 11.6875V52.6625C66 59.125 60.775 64.35 54.3125 64.35H11.6875C5.225 64.35 0 59.125 0 52.6625V11.6875C0 5.225 5.225 0 11.6875 0Z" fill="#333333"/>
<path d="M14.8501 45.1275V16.83C14.8501 16.6375 14.9326 16.5275 15.1251 16.5275C15.5926 16.5275 16.0326 16.5275 16.6651 16.5C17.3251 16.4725 18.0126 16.4725 18.7551 16.445C19.4976 16.4175 20.2951 16.4175 21.1476 16.39C22.0001 16.3625 22.8251 16.3625 23.6501 16.3625C25.9051 16.3625 27.7751 16.6375 29.3151 17.215C30.6901 17.6825 31.9551 18.4525 33.0001 19.47C33.8801 20.35 34.5676 21.4225 35.0076 22.605C35.4201 23.76 35.6401 24.9425 35.6401 26.18C35.6401 28.545 35.0901 30.4975 33.9901 32.0375C32.8901 33.5775 31.3501 34.7325 29.5626 35.3925C27.6926 36.08 25.6301 36.3275 23.3751 36.3275C22.7151 36.3275 22.2751 36.3275 22.0001 36.3C21.7251 36.2725 21.3401 36.2725 20.8176 36.2725V45.1C20.8451 45.2925 20.7076 45.4575 20.5151 45.485C20.4876 45.485 20.4601 45.485 20.4051 45.485H15.1801C14.9601 45.485 14.8501 45.375 14.8501 45.1275ZM20.8451 21.835V31.075C21.2301 31.1025 21.5876 31.13 21.9176 31.13H23.3751C24.4476 31.13 25.5201 30.965 26.5376 30.635C27.4176 30.3875 28.1876 29.865 28.7926 29.1775C29.3701 28.49 29.6451 27.555 29.6451 26.345C29.6726 25.4925 29.4526 24.64 29.0126 23.8975C28.5451 23.1825 27.8851 22.6325 27.0876 22.33C26.0701 21.9175 24.9701 21.7525 23.8426 21.78C23.1276 21.78 22.4951 21.78 21.9726 21.8075C21.4226 21.78 21.0376 21.8075 20.8451 21.835Z" fill="#F6F0E2"/>
<path d="M52.8001 29.3975C51.9751 28.9575 51.0951 28.655 50.1601 28.4625C49.1426 28.2425 48.1251 28.105 47.0801 28.105C46.5301 28.0775 45.9526 28.16 45.4301 28.2975C45.0726 28.38 44.7701 28.5725 44.5776 28.8475C44.4401 29.0675 44.3576 29.3425 44.3576 29.59C44.3576 29.8375 44.4676 30.085 44.6326 30.305C44.8801 30.6075 45.2101 30.855 45.5676 31.0475C46.2001 31.3775 46.8601 31.68 47.5201 31.955C49.0051 32.45 50.4351 33.1375 51.7551 33.9625C52.6626 34.54 53.4051 35.31 53.9276 36.245C54.3676 37.125 54.5876 38.0875 54.5601 39.0775C54.5876 40.37 54.2026 41.6625 53.4876 42.735C52.7176 43.835 51.6451 44.6875 50.4076 45.1825C49.0601 45.76 47.4101 46.0625 45.4301 46.0625C44.1651 46.0625 42.9276 45.9525 41.6901 45.705C40.7276 45.54 39.7651 45.2375 38.8851 44.825C38.6926 44.715 38.5551 44.5225 38.5826 44.3025V39.5175C38.5826 39.435 38.6101 39.325 38.6926 39.27C38.7751 39.215 38.8576 39.2425 38.9401 39.2975C40.0126 39.93 41.1401 40.37 42.3501 40.645C43.3951 40.92 44.4951 41.0575 45.5951 41.0575C46.6401 41.0575 47.3826 40.92 47.8776 40.6725C48.3176 40.48 48.6201 40.0125 48.6201 39.5175C48.6201 39.1325 48.4001 38.775 47.9601 38.4175C47.5201 38.06 46.6126 37.6475 45.2651 37.125C43.8626 36.63 42.5701 35.97 41.3601 35.145C40.5076 34.54 39.7926 33.7425 39.2701 32.8075C38.8301 31.9275 38.6101 30.965 38.6376 30.0025C38.6376 28.82 38.9676 27.6925 39.5726 26.675C40.2601 25.575 41.2776 24.695 42.4601 24.145C43.7526 23.485 45.3751 23.1825 47.3276 23.1825C48.4551 23.1825 49.6101 23.265 50.7376 23.43C51.5626 23.54 52.3601 23.76 53.1026 24.0625C53.2126 24.09 53.3226 24.2 53.3776 24.31C53.4051 24.42 53.4326 24.53 53.4326 24.64V29.1225C53.4326 29.2325 53.3776 29.3425 53.2951 29.3975C53.0476 29.4525 52.9101 29.4525 52.8001 29.3975Z" fill="#F6F0E2"/>
</svg>
