<svg width="897" height="182" viewBox="0 0 897 182" fill="none" xmlns="http://www.w3.org/2000/svg">
<path d="M102.076 34.432C128.188 34.432 148.796 43.52 148.796 64.768C148.796 86.784 128.188 94.976 102.076 94.976H96.572V104.192C96.572 120.32 101.692 118.528 101.692 123.52C101.692 125.952 99.644 128 96.572 128H71.74C68.668 128 66.62 125.952 66.62 123.52C66.62 118.528 71.74 120.32 71.74 104.192V58.24C71.74 42.112 66.62 43.904 66.62 38.912C66.62 36.48 68.668 34.432 71.74 34.432H102.076ZM96.572 86.784H102.076C115.516 86.784 122.428 78.592 122.428 64.768C122.428 50.944 115.516 42.752 102.076 42.752H96.572V86.784ZM152.075 81.28C152.075 54.528 174.219 32.384 200.971 32.384C227.723 32.384 249.995 54.528 249.995 81.28C249.995 107.904 227.723 130.048 200.971 130.048C174.219 130.048 152.075 107.904 152.075 81.28ZM178.443 81.152C184.459 103.68 199.435 121.856 211.979 121.856C224.395 121.856 229.643 103.68 223.627 81.152C217.611 58.752 202.635 40.576 190.219 40.576C177.675 40.576 172.427 58.752 178.443 81.152ZM291.326 34.432C317.438 34.432 338.046 42.496 338.046 62.336C338.046 74.752 330.622 82.56 318.974 86.784L330.75 104.32C339.454 117.376 346.366 118.656 346.366 123.648C346.366 126.08 344.19 128 341.118 128H320.51C316.926 128 313.598 127.36 313.598 123.648C313.598 118.528 311.806 115.328 304.382 104.32L295.294 90.88H285.822V104.192C285.822 120.32 290.942 118.528 290.942 123.52C290.942 125.952 288.894 128 285.822 128H260.99C257.918 128 255.87 125.952 255.87 123.52C255.87 118.528 260.99 120.32 260.99 104.192V58.24C260.99 42.112 255.87 43.904 255.87 38.912C255.87 36.48 257.918 34.432 260.99 34.432H291.326ZM285.822 82.688H291.326C304.766 82.688 311.678 75.648 311.678 62.72C311.678 49.792 304.766 42.752 291.326 42.752H285.822V82.688ZM430.195 34.432C432.115 34.432 433.779 35.712 434.291 37.632L438.643 54.016C439.155 56.192 437.875 58.368 435.699 59.008C433.651 59.52 431.603 58.496 430.835 56.576C427.891 49.536 424.435 42.624 413.683 42.624H403.059V104.192C403.059 120.32 408.179 118.528 408.179 123.52C408.179 125.952 406.131 128 403.059 128H378.227C375.155 128 373.107 125.952 373.107 123.52C373.107 118.528 378.227 120.32 378.227 104.192V42.624H367.603C356.851 42.624 353.395 49.536 350.451 56.576C349.683 58.496 347.635 59.52 345.587 59.008C343.411 58.368 342.131 56.192 342.643 54.016L346.995 37.632C347.507 35.712 349.171 34.432 351.091 34.432H430.195ZM445.74 58.24C445.74 42.112 440.62 43.904 440.62 38.912C440.62 36.48 442.668 34.432 445.74 34.432H504.748C506.54 34.432 508.204 35.712 508.716 37.632L513.196 54.016C513.836 56.192 512.428 58.368 510.252 59.008C508.204 59.52 506.156 58.496 505.388 56.576C502.444 49.536 498.86 42.624 488.236 42.624H470.572V72.96C486.7 72.96 484.908 67.84 489.9 67.84C492.332 67.84 494.38 70.016 494.38 72.96V81.152C494.38 84.096 492.332 86.272 489.9 86.272C484.908 86.272 486.7 81.152 470.572 81.152V104.32C470.572 120.448 475.82 118.656 475.82 123.648C475.82 126.08 473.644 128 470.572 128H445.74C442.668 128 440.62 125.952 440.62 123.52C440.62 118.528 445.74 120.32 445.74 104.192V58.24ZM513.325 81.28C513.325 54.528 535.469 32.384 562.221 32.384C588.973 32.384 611.245 54.528 611.245 81.28C611.245 107.904 588.973 130.048 562.221 130.048C535.469 130.048 513.325 107.904 513.325 81.28ZM539.693 81.152C545.709 103.68 560.685 121.856 573.229 121.856C585.645 121.856 590.893 103.68 584.877 81.152C578.861 58.752 563.885 40.576 551.469 40.576C538.925 40.576 533.677 58.752 539.693 81.152ZM666.016 119.808C676.64 119.808 680.096 112.896 683.04 105.856C683.936 103.936 685.856 102.912 687.904 103.424C690.208 104.064 691.488 106.24 690.848 108.416L686.496 124.928C685.984 126.848 684.32 128 682.528 128H622.24C619.168 128 617.12 125.952 617.12 123.52C617.12 118.528 622.24 120.32 622.24 104.192V58.24C622.24 42.112 617.12 43.904 617.12 38.912C617.12 36.48 619.168 34.432 622.24 34.432H647.072C650.144 34.432 652.192 36.48 652.192 38.912C652.192 43.904 647.072 42.112 647.072 58.24V119.808H666.016ZM698.615 58.24C698.615 42.112 693.495 43.904 693.495 38.912C693.495 36.48 695.543 34.432 698.615 34.432H723.447C726.519 34.432 728.567 36.48 728.567 38.912C728.567 43.904 723.447 42.112 723.447 58.24V104.192C723.447 120.32 728.567 118.528 728.567 123.52C728.567 125.952 726.519 128 723.447 128H698.615C695.543 128 693.495 125.952 693.495 123.52C693.495 118.528 698.615 120.32 698.615 104.192V58.24ZM734.325 81.28C734.325 54.528 756.469 32.384 783.221 32.384C809.973 32.384 832.245 54.528 832.245 81.28C832.245 107.904 809.973 130.048 783.221 130.048C756.469 130.048 734.325 107.904 734.325 81.28ZM760.693 81.152C766.709 103.68 781.685 121.856 794.229 121.856C806.645 121.856 811.893 103.68 805.877 81.152C799.861 58.752 784.885 40.576 772.469 40.576C759.925 40.576 754.677 58.752 760.693 81.152Z" fill="#333333"/>
<path d="M700.474 15.0526C701.556 15.0526 702.615 15.3736 703.515 15.9751C704.415 16.5766 705.116 17.4314 705.531 18.4316C705.945 19.4318 706.053 20.5324 705.842 21.5942C705.631 22.6559 705.11 23.6313 704.344 24.3968C703.579 25.1623 702.603 25.6836 701.542 25.8948C700.48 26.106 699.379 25.9976 698.379 25.5833C697.379 25.169 696.524 24.4675 695.922 23.5673C695.321 22.6672 695 21.6089 695 20.5263L695.007 20.2526C695.077 18.85 695.684 17.5281 696.701 16.5602C697.719 15.5924 699.069 15.0526 700.474 15.0526ZM719.632 15.0526C720.714 15.0526 721.772 15.3736 722.673 15.9751C723.573 16.5766 724.274 17.4314 724.689 18.4316C725.103 19.4318 725.211 20.5324 725 21.5942C724.789 22.6559 724.268 23.6313 723.502 24.3968C722.737 25.1623 721.761 25.6836 720.699 25.8948C719.638 26.106 718.537 25.9976 717.537 25.5833C716.537 25.169 715.682 24.4675 715.08 23.5673C714.479 22.6672 714.158 21.6089 714.158 20.5263L714.165 20.2526C714.235 18.85 714.842 17.5281 715.859 16.5602C716.877 15.5924 718.227 15.0526 719.632 15.0526Z" fill="#333333"/>
<path d="M713.928 6.08263L716.259 9.57895H719.632C719.967 9.57899 720.291 9.70204 720.541 9.92477C720.791 10.1475 720.951 10.4544 720.991 10.7873L721 10.9474C721 11.3103 720.856 11.6584 720.599 11.915C720.343 12.1716 719.995 12.3158 719.632 12.3158H715.527C715.301 12.3158 715.08 12.2603 714.881 12.154C714.682 12.0478 714.513 11.8942 714.388 11.7068L712.478 8.84274L707.996 12.428L711.02 15.4522C711.233 15.6654 711.37 15.943 711.409 16.2418L711.421 16.4211V21.8947C711.421 22.2577 711.277 22.6057 711.021 22.8624C710.764 23.119 710.416 23.2632 710.053 23.2632C709.69 23.2632 709.342 23.119 709.085 22.8624C708.829 22.6057 708.684 22.2577 708.684 21.8947V16.9889L704.98 13.2833C704.726 13.0291 704.583 12.6853 704.58 12.3261C704.578 11.9669 704.716 11.6211 704.966 11.3634L705.092 11.2471L711.934 5.77337C712.083 5.6548 712.254 5.56832 712.437 5.51944C712.62 5.47056 712.812 5.46033 712.999 5.48941C713.187 5.5185 713.366 5.58625 713.526 5.68837C713.686 5.7905 713.823 5.92476 713.928 6.08263ZM716.895 1.37209e-07C717.436 1.37209e-07 717.965 0.160513 718.416 0.461241C718.866 0.761969 719.216 1.18941 719.424 1.6895C719.631 2.18959 719.685 2.73988 719.579 3.27077C719.474 3.80167 719.213 4.28933 718.83 4.67208C718.447 5.05484 717.96 5.3155 717.429 5.4211C716.898 5.5267 716.348 5.4725 715.848 5.26535C715.348 5.05821 714.92 4.70742 714.619 4.25735C714.319 3.80728 714.158 3.27814 714.158 2.73684L714.165 2.53158C714.217 1.84305 714.527 1.19954 715.033 0.730048C715.539 0.260556 716.205 -0.000218372 716.895 1.37209e-07Z" fill="#333333"/>
</svg>
