<svg width="66" height="65" viewBox="0 0 66 65" fill="none" xmlns="http://www.w3.org/2000/svg">
<path d="M11.6875 0H54.3125C60.775 0 66 5.225 66 11.6875V52.6625C66 59.125 60.775 64.35 54.3125 64.35H11.6875C5.225 64.35 0 59.125 0 52.6625V11.6875C0 5.225 5.225 0 11.6875 0Z" fill="#333333"/>
<path d="M15.675 45.1V16.775C15.675 16.5825 15.7575 16.4725 15.95 16.4725C16.4175 16.4725 16.8575 16.4725 17.49 16.445C18.15 16.4175 18.8375 16.4175 19.58 16.39C20.3225 16.3625 21.12 16.3625 21.9725 16.335C22.825 16.3075 23.65 16.3075 24.475 16.3075C26.73 16.3075 28.6 16.5825 30.14 17.16C31.515 17.6275 32.78 18.3975 33.825 19.415C34.705 20.295 35.3925 21.3675 35.8325 22.55C36.245 23.705 36.465 24.8875 36.465 26.125C36.465 28.49 35.915 30.4425 34.815 31.9825C33.715 33.5225 32.175 34.6775 30.3875 35.3375C28.5175 36.025 26.455 36.2725 24.2 36.2725C23.54 36.2725 23.1 36.2725 22.825 36.245C22.55 36.2175 22.165 36.2175 21.6425 36.2175V45.045C21.67 45.2375 21.5325 45.4025 21.34 45.43H21.23H16.005C15.785 45.43 15.675 45.32 15.675 45.0725V45.1ZM21.67 21.8075V31.0475C22.055 31.075 22.4125 31.1025 22.7425 31.1025H24.2C25.2725 31.1025 26.345 30.9375 27.3625 30.6075C28.2425 30.36 29.0125 29.8375 29.6175 29.15C30.195 28.4625 30.47 27.5275 30.47 26.3175C30.4975 25.465 30.2775 24.6125 29.8375 23.87C29.37 23.155 28.71 22.605 27.9125 22.3025C26.895 21.89 25.795 21.725 24.6675 21.7525C23.9525 21.7525 23.32 21.7525 22.7975 21.78C22.2475 21.7525 21.8625 21.78 21.67 21.8075Z" fill="#F6F0E2"/>
<path d="M40.425 23.43H45.2375C45.5125 23.43 45.7325 23.6225 45.815 23.87C45.8975 24.09 45.9525 24.31 45.98 24.5575C46.035 24.8325 46.09 25.135 46.1175 25.41C46.145 25.7125 46.1725 26.0425 46.1725 26.4C46.9975 25.4375 47.9875 24.64 49.115 24.035C50.38 23.32 51.8375 22.9625 53.295 22.9625C53.4875 22.935 53.6525 23.0725 53.68 23.265V23.375V28.7375C53.68 28.9575 53.5425 29.04 53.24 29.04C52.25 29.0125 51.2325 29.095 50.27 29.315C49.4725 29.48 48.7025 29.7275 47.96 30.0575C47.4375 30.305 46.9425 30.635 46.5575 31.075V45.1C46.5575 45.375 46.4475 45.485 46.2 45.485H40.7825C40.5625 45.5125 40.37 45.375 40.3425 45.155V45.045V29.81C40.3425 29.15 40.3425 28.4625 40.315 27.7475C40.2875 27.0325 40.2875 26.3175 40.26 25.6025C40.26 24.97 40.205 24.365 40.15 23.7325C40.1225 23.595 40.205 23.4575 40.3425 23.43C40.3425 23.4025 40.3975 23.4025 40.425 23.43Z" fill="#F6F0E2"/>
</svg>
