<svg width="54" height="75" viewBox="0 0 54 75" fill="none" xmlns="http://www.w3.org/2000/svg">
<path d="M32.4 0H21.6C15.8732 0.00620376 10.3828 2.26584 6.3334 6.28313C2.28397 10.3004 0.00625339 15.7473 0 21.4286V53.5714C0.00625339 59.2527 2.28397 64.6996 6.3334 68.7169C10.3828 72.7342 15.8732 74.9938 21.6 75H32.4C38.1268 74.9938 43.6172 72.7342 47.6666 68.7169C51.716 64.6996 53.9937 59.2527 54 53.5714V21.4286C53.9937 15.7473 51.716 10.3004 47.6666 6.28313C43.6172 2.26584 38.1268 0.00620376 32.4 0ZM33.1898 48.9978C33.6964 48.4952 34.3835 48.2128 35.1 48.2128C35.8165 48.2128 36.5036 48.4952 37.0103 48.9978C37.5169 49.5004 37.8015 50.1821 37.8015 50.8929C37.8015 51.6037 37.5169 52.2853 37.0103 52.7879L28.9103 60.8237C28.6595 61.0727 28.3617 61.2703 28.0339 61.4051C27.7062 61.5399 27.3548 61.6092 27 61.6092C26.6452 61.6092 26.2938 61.5399 25.9661 61.4051C25.6383 61.2703 25.3405 61.0727 25.0897 60.8237L16.9897 52.7879C16.4831 52.2853 16.1985 51.6037 16.1985 50.8929C16.1985 50.1821 16.4831 49.5004 16.9897 48.9978C17.4964 48.4952 18.1835 48.2128 18.9 48.2128C19.6165 48.2128 20.3036 48.4952 20.8103 48.9978L24.3 52.4632V22.5368L20.8103 26.0022C20.3036 26.5048 19.6165 26.7872 18.9 26.7872C18.1835 26.7872 17.4964 26.5048 16.9897 26.0022C16.4831 25.4996 16.1985 24.8179 16.1985 24.1071C16.1985 23.3963 16.4831 22.7147 16.9897 22.2121L25.0897 14.1763C25.3405 13.9273 25.6383 13.7297 25.9661 13.5949C26.2938 13.4601 26.6452 13.3907 27 13.3907C27.3548 13.3907 27.7062 13.4601 28.0339 13.5949C28.3617 13.7297 28.6595 13.9273 28.9103 14.1763L37.0103 22.2121C37.2611 22.4609 37.4601 22.7564 37.5959 23.0815C37.7316 23.4067 37.8015 23.7552 37.8015 24.1071C37.8015 24.4591 37.7316 24.8076 37.5959 25.1328C37.4601 25.4579 37.2611 25.7534 37.0103 26.0022C36.7594 26.2511 36.4616 26.4485 36.1338 26.5832C35.8061 26.7179 35.4548 26.7872 35.1 26.7872C34.7452 26.7872 34.3939 26.7179 34.0662 26.5832C33.7384 26.4485 33.4406 26.2511 33.1898 26.0022L29.7 22.5368V52.4632L33.1898 48.9978Z" fill="#333333"/>
</svg>
