<svg width="66" height="65" viewBox="0 0 66 65" fill="none" xmlns="http://www.w3.org/2000/svg">
<path d="M11.6875 0H54.3125C60.775 0 66 5.225 66 11.6875V52.6625C66 59.125 60.775 64.35 54.3125 64.35H11.6875C5.225 64.35 0 59.125 0 52.6625V11.6875C0 5.225 5.225 0 11.6875 0Z" fill="#333333"/>
<path d="M34.705 16.9125L26.455 30.525L35.255 44.9625C35.31 45.0725 35.3375 45.1825 35.31 45.2925C35.2825 45.4025 35.1725 45.32 35.0075 45.3475H28.71C28.27 45.3475 27.9675 45.32 27.775 45.045C27.1975 43.89 26.5925 42.7625 26.015 41.6075C25.4375 40.48 24.805 39.325 24.145 38.1425C23.485 36.96 22.825 35.7775 22.165 34.5675H22.11C21.5325 35.75 20.9 36.9325 20.2675 38.115C19.635 39.2975 19.0025 40.48 18.3975 41.635C17.765 42.79 17.1325 43.9725 16.5 45.1C16.39 45.375 16.17 45.4025 15.8675 45.4025H9.81755C9.70755 45.4025 9.62505 45.4575 9.62505 45.32C9.59755 45.21 9.62505 45.1 9.68005 45.0175L18.2325 30.9925L9.90005 16.885C9.81755 16.775 9.79005 16.665 9.84505 16.61C9.90005 16.5275 10.01 16.5 10.12 16.5H16.3625C16.5 16.5 16.6375 16.5275 16.7475 16.555C16.8575 16.61 16.94 16.6925 17.0225 16.8025C17.545 17.985 18.15 19.1675 18.7825 20.35C19.4425 21.5325 20.075 22.6875 20.7625 23.8425C21.4225 24.9975 22.0275 26.1525 22.605 27.335H22.66C23.2375 26.125 23.8425 24.9425 24.4475 23.7875C25.0525 22.6325 25.685 21.4775 26.3175 20.3225C26.95 19.1675 27.555 17.985 28.16 16.8575C28.1875 16.7475 28.2425 16.6375 28.325 16.5825C28.435 16.5275 28.545 16.5 28.6825 16.5275H34.485C34.6225 16.5 34.76 16.5825 34.7875 16.72C34.815 16.7475 34.76 16.8575 34.705 16.9125Z" fill="#F6F0E2"/>
<path d="M47.4101 45.925C45.3751 45.9525 43.3401 45.54 41.4976 44.6875C39.7651 43.89 38.3351 42.57 37.3451 40.9475C36.3276 39.27 35.8326 37.18 35.8326 34.6775C35.8051 32.6425 36.3276 30.635 37.3451 28.875C38.3901 27.0875 39.9026 25.6025 41.7176 24.6125C43.6426 23.54 45.9526 23.0175 48.6751 23.0175C48.8126 23.0175 49.0051 23.0175 49.2526 23.045C49.5001 23.0725 49.7751 23.0725 50.1051 23.1V14.41C50.1051 14.2175 50.1876 14.1075 50.3801 14.1075H55.9626C56.1001 14.08 56.2101 14.19 56.2376 14.3C56.2376 14.3275 56.2376 14.355 56.2376 14.355V40.535C56.2376 41.03 56.2651 41.58 56.2926 42.185C56.3476 42.7625 56.3751 43.3125 56.4026 43.78C56.4026 43.9725 56.3201 44.1375 56.1276 44.22C54.6976 44.825 53.1851 45.265 51.6451 45.54C50.2426 45.7875 48.8401 45.925 47.4101 45.925ZM50.1051 40.425V28.325C49.8576 28.27 49.6101 28.215 49.3626 28.1875C49.0601 28.16 48.7576 28.1325 48.4551 28.1325C47.3826 28.1325 46.3101 28.3525 45.3476 28.8475C44.4126 29.315 43.6151 30.0025 43.0101 30.8825C42.4051 31.7625 42.1026 32.945 42.1026 34.375C42.0751 35.3375 42.2401 36.3 42.5701 37.2075C42.8451 37.95 43.2576 38.61 43.8076 39.16C44.3301 39.655 44.9626 40.04 45.6776 40.26C46.4201 40.5075 47.1901 40.6175 47.9601 40.6175C48.3726 40.6175 48.7576 40.59 49.1151 40.5625C49.4726 40.59 49.7751 40.535 50.1051 40.425Z" fill="#F6F0E2"/>
</svg>
